<svg width="96" height="96" xmlns="http://www.w3.org/2000/svg" xmlns:xlink="http://www.w3.org/1999/xlink" xml:space="preserve" overflow="hidden"><g transform="translate(-485 -276)"><path d="M533 332C528.582 332 525 328.418 525 324 525 319.582 528.582 316 533 316 537.418 316 541 319.582 541 324 541 328.418 537.418 332 533 332ZM533 320C530.791 320 529 321.791 529 324 529 326.209 530.791 328 533 328 535.209 328 537 326.209 537 324 537 321.791 535.209 320 533 320Z"/><path d="M568 322C566.951 304.227 552.773 290.049 535 289L535 283 531 283 531 289C513.227 290.049 499.049 304.227 498 322L492 322 492 326 498 326C499.049 343.773 513.227 357.951 531 359L531 365 535 365 535 359C552.773 357.951 566.951 343.773 568 326L574 326 574 322ZM553.16 326C552.199 335.603 544.603 343.199 535 344.16L535 336 531 336 531 344.16C521.397 343.199 513.801 335.603 512.84 326L521 326 521 322 512.84 322C513.801 312.397 521.397 304.801 531 303.84L531 312 535 312 535 303.84C544.603 304.801 552.199 312.397 553.16 322L545 322 545 326ZM531 295 531 299.83C519.189 300.822 509.817 310.19 508.82 322L504 322C505.028 307.536 516.536 296.028 531 295ZM504 326 508.83 326C509.822 337.811 519.19 347.183 531 348.18L531 353C516.536 351.972 505.028 340.464 504 326ZM535 353 535 348.18C546.814 347.187 556.187 337.814 557.18 326L562 326C560.972 340.464 549.464 351.972 535 353ZM557.18 322C556.187 310.186 546.814 300.813 535 299.82L535 295C549.464 296.028 560.972 307.536 562 322Z"/></g></svg>