<svg width="23" height="23" xmlns="http://www.w3.org/2000/svg" xmlns:xlink="http://www.w3.org/1999/xlink" xml:space="preserve" overflow="hidden"><g transform="translate(-774 -15)"><path d="M785.5 28.4167C784.441 28.4167 783.583 27.5586 783.583 26.5 783.583 25.4414 784.441 24.5833 785.5 24.5833 786.559 24.5833 787.417 25.4414 787.417 26.5 787.417 27.5586 786.559 28.4167 785.5 28.4167ZM785.5 25.5417C784.971 25.5417 784.542 25.9707 784.542 26.5 784.542 27.0293 784.971 27.4583 785.5 27.4583 786.029 27.4583 786.458 27.0293 786.458 26.5 786.458 25.9707 786.029 25.5417 785.5 25.5417Z"/><path d="M793.885 26.0208C793.634 21.7627 790.237 18.3658 785.979 18.1146L785.979 16.6771 785.021 16.6771 785.021 18.1146C780.763 18.3658 777.366 21.7627 777.115 26.0208L775.677 26.0208 775.677 26.9792 777.115 26.9792C777.366 31.2373 780.763 34.6342 785.021 34.8854L785.021 36.3229 785.979 36.3229 785.979 34.8854C790.237 34.6342 793.634 31.2373 793.885 26.9792L795.323 26.9792 795.323 26.0208ZM790.33 26.9792C790.1 29.28 788.28 31.0998 785.979 31.33L785.979 29.375 785.021 29.375 785.021 31.33C782.72 31.0998 780.9 29.28 780.67 26.9792L782.625 26.9792 782.625 26.0208 780.67 26.0208C780.9 23.72 782.72 21.9002 785.021 21.67L785.021 23.625 785.979 23.625 785.979 21.67C788.28 21.9002 790.1 23.72 790.33 26.0208L788.375 26.0208 788.375 26.9792ZM785.021 19.5521 785.021 20.7093C782.191 20.9469 779.946 23.1913 779.707 26.0208L778.552 26.0208C778.798 22.5554 781.555 19.7985 785.021 19.5521ZM778.552 26.9792 779.709 26.9792C779.947 29.8088 782.191 32.0542 785.021 32.2931L785.021 33.4479C781.555 33.2015 778.798 30.4446 778.552 26.9792ZM785.979 33.4479 785.979 32.2931C788.81 32.0553 791.055 29.8096 791.293 26.9792L792.448 26.9792C792.202 30.4446 789.445 33.2015 785.979 33.4479ZM791.293 26.0208C791.055 23.1904 788.81 20.9447 785.979 20.7069L785.979 19.5521C789.445 19.7985 792.202 22.5554 792.448 26.0208Z"/></g></svg>