<svg width="139" height="140" xmlns="http://www.w3.org/2000/svg" xmlns:xlink="http://www.w3.org/1999/xlink" xml:space="preserve" overflow="hidden"><g transform="translate(-1312 -312)"><path d="M119.888 56.4688C118.729 56.4688 117.716 56.6135 116.557 56.9031L113.372 47.2021C122.204 42.5687 125.679 31.7094 121.046 22.8771 116.412 14.0448 105.553 10.5698 96.7208 15.2031 91.9427 17.6646 88.4677 22.2979 87.3094 27.5104L74.5677 26.3521C74.4229 19.6917 69.0656 14.4792 62.4052 14.624 55.7448 14.7687 50.5323 20.126 50.6771 26.7865 50.6771 29.2479 51.5458 31.5646 52.849 33.5917L36.9219 49.374C29.3927 42.8583 17.9542 43.5823 11.4385 51.1115 4.92292 58.6406 5.50208 70.0792 13.0312 76.5948 16.3615 79.4906 20.5604 81.0833 24.9042 81.0833 25.3385 81.0833 25.7729 81.0833 26.2073 81.0833L30.1167 101.933C23.7458 103.816 20.2708 110.476 22.1531 116.847 24.0354 123.218 30.6958 126.693 37.0667 124.81 43.4375 122.928 46.9125 116.268 45.0302 109.897 44.7406 109.173 44.451 108.449 44.1615 107.725L57.0479 101.209 57.0479 101.209C64.1427 110.91 77.7531 112.938 87.3094 105.843 94.6937 100.341 97.8792 90.9292 95.2729 82.0969L109.318 74.4229C112.648 80.0698 119.888 82.0969 125.679 78.7667 131.326 75.4365 133.353 68.1969 130.023 62.4052 127.996 58.7854 124.086 56.4688 119.888 56.4688ZM96.1417 43.5823C96.576 38.8042 100.92 35.1844 105.698 35.6187 109.897 36.0531 113.227 39.3833 113.661 43.5823 108.449 47.2021 101.499 47.2021 96.1417 43.5823ZM100.92 28.6687C100.92 26.4969 102.657 24.6146 104.974 24.6146 107.291 24.6146 109.028 26.3521 109.028 28.6687 109.028 30.8406 107.291 32.7229 104.974 32.7229 102.802 32.7229 100.92 30.8406 100.92 28.6687L100.92 28.6687ZM104.974 15.9271C113.372 15.9271 120.177 22.7323 120.177 31.1302 120.177 34.8948 118.729 38.5146 116.268 41.4104 115.399 38.0802 112.938 35.1844 109.752 33.7365 112.503 31.1302 112.648 26.7865 110.042 23.8906 107.435 21.1396 103.092 20.9948 100.196 23.601 97.3 26.2073 97.3 30.551 99.9062 33.4469 100.051 33.5917 100.196 33.7365 100.196 33.7365 97.0104 35.1844 94.549 37.9354 93.6802 41.4104 88.0333 35.1844 88.4677 25.6281 94.6937 19.9812 97.5896 17.375 101.209 15.9271 104.974 15.9271ZM95.2729 46.4781 83.5448 68.6312C73.2646 63.8531 61.2469 67.7625 55.7448 77.6083L41.7 69.9344C44.3062 63.7083 43.1479 56.6135 38.949 51.401L54.876 35.474C59.799 39.8177 67.3281 39.2385 71.6719 34.1708 72.975 32.7229 73.8438 30.9854 74.2781 29.1031L87.0198 30.2615C87.0198 30.551 87.0198 30.8406 87.0198 31.1302 86.875 37.3562 90.0604 43.1479 95.2729 46.4781ZM60.6677 24.9042C60.6677 23.7458 61.5365 22.8771 62.6948 22.8771 63.8531 22.8771 64.7219 23.7458 64.7219 24.9042 64.7219 26.0625 63.8531 26.9312 62.6948 26.9312 62.6948 26.9312 62.6948 26.9312 62.6948 26.9312 61.5365 26.7865 60.6677 25.9177 60.6677 24.9042ZM62.6948 29.6823C65.1562 29.6823 67.1833 31.4198 67.6177 33.8812 64.5771 35.9083 60.8125 35.9083 57.7719 33.8812 58.0615 31.5646 60.0885 29.8271 62.6948 29.6823ZM62.6948 17.375C67.6177 17.375 71.6719 21.4292 71.8167 26.3521 71.8167 28.2344 71.2375 30.1167 70.0792 31.7094 69.3552 30.1167 68.1969 28.6687 66.6042 27.8 67.3281 26.9312 67.6177 25.9177 67.6177 24.7594 67.6177 22.0083 65.4458 19.8365 62.6948 19.8365 59.9438 19.8365 57.7719 22.0083 57.7719 24.7594 57.7719 25.9177 58.2062 26.9312 58.7854 27.8 57.1927 28.6687 56.0344 29.9719 55.3104 31.7094 52.4146 27.6552 53.2833 22.0083 57.1927 19.1125 58.7854 17.9542 60.6677 17.375 62.6948 17.375ZM9.84583 62.9844C9.84583 54.5865 16.651 47.7812 25.049 47.7812 33.4469 47.7812 40.2521 54.5865 40.2521 62.9844 40.2521 66.749 38.8042 70.3687 36.3427 73.2646 35.474 69.9344 33.0125 67.0385 29.8271 65.5906 32.5781 62.9844 32.7229 58.6406 30.1167 55.7448 27.5104 52.849 23.1667 52.849 20.2708 55.4552 17.5198 58.0615 17.375 62.4052 19.9812 65.301 20.126 65.4458 20.2708 65.5906 20.2708 65.5906 17.0854 67.0385 14.624 69.7896 13.7552 73.2646 11.149 70.3687 9.84583 66.749 9.84583 62.9844ZM20.9948 60.5229C20.9948 58.351 22.7323 56.4688 25.049 56.4688 27.3656 56.4688 29.1031 58.2062 29.1031 60.5229 29.1031 62.6948 27.3656 64.5771 25.049 64.5771 22.7323 64.5771 20.9948 62.6948 20.9948 60.5229ZM16.2167 75.4365C16.651 70.6583 20.9948 67.0385 25.7729 67.4729 29.9719 67.9073 33.3021 71.2375 33.7365 75.4365 28.524 79.0562 21.4292 79.0562 16.2167 75.4365ZM28.6687 120.901C29.1031 118.15 31.5646 116.268 34.3156 116.702 36.4875 116.992 38.225 118.729 38.5146 120.901 35.6187 122.783 31.7094 122.783 28.6687 120.901ZM31.7094 111.779C31.7094 110.621 32.5781 109.752 33.7365 109.752 34.8948 109.752 35.7635 110.621 35.7635 111.779 35.7635 112.938 34.8948 113.806 33.7365 113.806 32.5781 113.661 31.7094 112.793 31.7094 111.779L31.7094 111.779ZM40.976 118.584C40.2521 116.992 39.0938 115.544 37.501 114.675 38.225 113.806 38.5146 112.793 38.5146 111.634 38.5146 108.883 36.3427 106.711 33.5917 106.711 30.8406 106.711 28.6687 108.883 28.6687 111.634 28.6687 112.793 29.1031 113.806 29.6823 114.675 28.0896 115.544 26.9312 116.847 26.2073 118.584 23.3115 114.53 24.1802 108.883 28.2344 105.987 32.2885 103.092 37.9354 103.96 40.8312 108.015 43.2927 111.055 43.2927 115.399 40.976 118.584L40.976 118.584ZM42.424 105.264C40.2521 102.802 37.0667 101.354 33.7365 101.354 33.5917 101.354 33.3021 101.354 33.1573 101.354L29.2479 80.5042C33.8812 79.3458 37.9354 76.45 40.3969 72.3958L54.4417 80.0698C51.9802 86.151 52.4146 92.9562 55.4552 98.6031L42.424 105.264ZM63.5635 103.526C63.9979 97.4448 69.3552 92.9562 75.4365 93.3906 80.7937 93.825 85.1375 98.1688 85.5719 103.526 79.0562 108.304 70.0792 108.304 63.5635 103.526ZM69.3552 85.2823C69.3552 82.3865 71.6719 80.0698 74.5677 80.0698 77.4635 80.0698 79.7802 82.3865 79.7802 85.2823 79.7802 88.1781 77.4635 90.4948 74.5677 90.4948 74.5677 90.4948 74.5677 90.4948 74.5677 90.4948 71.6719 90.4948 69.3552 88.1781 69.3552 85.2823ZM88.1781 101.354C87.1646 96.8656 83.9792 93.2458 79.7802 91.5083 83.2552 88.6125 83.6896 83.5448 80.7937 80.0698 77.8979 76.5948 72.8302 76.1604 69.3552 79.0562 65.8802 81.9521 65.4458 87.0198 68.3417 90.4948 68.6312 90.9292 69.0656 91.2188 69.3552 91.5083 65.1562 93.2458 61.9708 96.8656 60.9573 101.354 53.7177 93.825 54.0073 81.9521 61.5365 74.7125 69.0656 67.4729 80.9385 67.7625 88.1781 75.2917 95.1281 82.5312 95.1281 94.1146 88.1781 101.354ZM94.2594 79.3458C92.5219 75.4365 89.626 72.251 86.151 69.9344L97.8792 47.7812C101.933 49.5187 106.422 49.6635 110.621 48.3604L113.806 58.0615C109.028 60.8125 106.711 66.4594 108.304 71.6719L94.2594 79.3458ZM114.82 76.0156C115.254 73.2646 117.716 71.3823 120.467 71.8167 122.639 72.1062 124.376 73.8438 124.666 76.0156 121.77 77.8979 117.86 77.8979 114.82 76.0156ZM117.86 66.8938C117.86 65.7354 118.729 64.8667 119.888 64.8667 121.046 64.8667 121.915 65.7354 121.915 66.8938 121.915 68.0521 121.046 68.9208 119.888 68.9208 119.888 68.9208 119.888 68.9208 119.888 68.9208 118.729 68.776 117.86 67.9073 117.86 66.8938L117.86 66.8938ZM127.127 73.699C126.403 72.1062 125.245 70.6583 123.652 69.7896 124.376 68.9208 124.666 67.9073 124.666 66.749 124.666 63.9979 122.494 61.826 119.743 61.826 116.992 61.826 114.82 63.9979 114.82 66.749 114.82 67.9073 115.254 68.9208 115.833 69.7896 114.241 70.6583 113.082 71.9615 112.358 73.699 109.462 69.6448 110.331 63.9979 114.385 61.1021 118.44 58.2062 124.086 59.075 126.982 63.1292 129.444 66.1698 129.444 70.5135 127.127 73.699 127.127 73.699 127.127 73.699 127.127 73.699Z" transform="matrix(1 0 0 1.00719 1312 312)"/></g></svg>