<svg width="39" height="39" xmlns="http://www.w3.org/2000/svg" xmlns:xlink="http://www.w3.org/1999/xlink" xml:space="preserve" overflow="hidden"><g transform="translate(-901 -656)"><path d="M930.656 689.312 910.344 689.312 910.344 664.125 914.812 664.125 914.812 666.562 926.188 666.562 926.188 664.125 930.656 664.125ZM920.5 660.875C921.173 660.875 921.719 661.421 921.719 662.094 921.719 662.767 921.173 663.312 920.5 663.312 919.827 663.312 919.281 662.767 919.281 662.094 919.27 661.432 919.798 660.886 920.46 660.875 920.473 660.875 920.487 660.875 920.5 660.875ZM931.469 661.688 924.562 661.688 924.562 660.875C924.562 659.978 923.835 659.25 922.938 659.25L918.062 659.25C917.165 659.25 916.438 659.978 916.438 660.875L916.438 661.688 909.531 661.688C908.634 661.688 907.906 662.415 907.906 663.312L907.906 690.125C907.906 691.022 908.634 691.75 909.531 691.75L931.469 691.75C932.366 691.75 933.094 691.022 933.094 690.125L933.094 663.312C933.094 662.415 932.366 661.688 931.469 661.688Z" fill="#FFFFFF"/><path d="M921.312 669.812 928.219 669.812 928.219 671.438 921.312 671.438Z" fill="#FFFFFF"/><path d="M921.312 674.688 928.219 674.688 928.219 676.312 921.312 676.312Z" fill="#FFFFFF"/><path d="M921.312 679.562 928.219 679.562 928.219 681.188 921.312 681.188Z" fill="#FFFFFF"/><path d="M921.312 684.438 928.219 684.438 928.219 686.062 921.312 686.062Z" fill="#FFFFFF"/><path d="M913.068 670.544 913.919 669.693 914.975 670.75 917.656 668.068 918.507 668.919 914.975 672.45 913.068 670.544Z" fill="#FFFFFF"/><path d="M913.068 675.419 913.919 674.568 914.975 675.625 917.656 672.943 918.507 673.794 914.975 677.325 913.068 675.419Z" fill="#FFFFFF"/><path d="M913.068 680.294 913.919 679.443 914.975 680.5 917.656 677.818 918.507 678.669 914.975 682.2 913.068 680.294Z" fill="#FFFFFF"/><path d="M913.068 685.169 913.919 684.318 914.975 685.375 917.656 682.693 918.507 683.544 914.975 687.075 913.068 685.169Z" fill="#FFFFFF"/></g></svg>