<svg width="61" height="60" xmlns="http://www.w3.org/2000/svg" xmlns:xlink="http://www.w3.org/1999/xlink" xml:space="preserve" overflow="hidden"><g transform="translate(-69 -188)"><path d="M30 13.1287C28.6193 13.1287 27.5 14.2481 27.5 15.6287 27.5 17.0094 28.6193 18.1287 30 18.1287 31.3807 18.1287 32.5 17.0094 32.5 15.6287 32.4959 14.2498 31.379 13.1329 30 13.1287ZM30 16.8787C29.3096 16.8787 28.75 16.3191 28.75 15.6287 28.75 14.9384 29.3096 14.3787 30 14.3787 30.6904 14.3787 31.25 14.9384 31.25 15.6287 31.2507 16.3191 30.6916 16.8793 30.0012 16.88 30.0008 16.88 30.0004 16.88 30 16.88Z" transform="matrix(1.01667 0 0 1 69 188)"/><path d="M49.375 46.8881 49.375 45 46.875 45 46.875 25.625 49.375 25.625 49.375 22.5 52.5 22.5 52.5 21.25 30 7.5 7.5 21.25 7.5 22.5 10.625 22.5 10.625 25.625 13.125 25.625 13.125 45 10.625 45 10.625 46.8881 6.25 50.0131 6.25 52.5 53.75 52.5 53.75 50.0138ZM45.625 45 44.375 45 44.375 25.625 45.625 25.625ZM16.875 25.625 20.625 25.625 20.625 45 16.875 45ZM21.875 25.625 23.125 25.625 23.125 45 21.875 45ZM24.375 25.625 28.125 25.625 28.125 45 24.375 45ZM29.375 25.625 30.625 25.625 30.625 45 29.375 45ZM31.875 25.625 35.625 25.625 35.625 45 31.875 45ZM36.875 25.625 38.125 25.625 38.125 45 36.875 45ZM39.375 25.625 43.125 25.625 43.125 45 39.375 45ZM9.91625 21.2381 30 8.96688 50.0838 21.2381C50.0871 21.2392 50.0888 21.2428 50.0878 21.246 50.0871 21.2479 50.0856 21.2494 50.0838 21.25L9.92 21.25C9.91625 21.2495 9.91356 21.2461 9.91406 21.2422 9.91431 21.2407 9.91506 21.2392 9.91625 21.2381ZM11.875 22.5 48.125 22.5 48.125 24.375 11.875 24.375ZM14.375 25.625 15.625 25.625 15.625 45 14.375 45ZM11.875 47.5312 11.875 46.25 48.125 46.25 48.125 47.5312 48.6481 47.9062 48.9556 48.1263 11.0444 48.1263 11.3525 47.9062ZM52.5 51.25 7.5 51.25 7.5 50.6575 9.29438 49.375 50.7088 49.375 52.5 50.6575Z" transform="matrix(1.01667 0 0 1 69 188)"/></g></svg>