<svg width="28" height="28" xmlns="http://www.w3.org/2000/svg" xmlns:xlink="http://www.w3.org/1999/xlink" xml:space="preserve" overflow="hidden"><g transform="translate(-430 -7)"><path d="M444 23.3333C442.711 23.3333 441.667 22.2887 441.667 21 441.667 19.7113 442.711 18.6667 444 18.6667 445.289 18.6667 446.333 19.7113 446.333 21 446.333 22.2887 445.289 23.3333 444 23.3333ZM444 19.8333C443.356 19.8333 442.833 20.3557 442.833 21 442.833 21.6443 443.356 22.1667 444 22.1667 444.644 22.1667 445.167 21.6443 445.167 21 445.167 20.3557 444.644 19.8333 444 19.8333Z"/><path d="M454.208 20.4167C453.902 15.2329 449.767 11.0975 444.583 10.7917L444.583 9.04167 443.417 9.04167 443.417 10.7917C438.233 11.0975 434.098 15.2329 433.792 20.4167L432.042 20.4167 432.042 21.5833 433.792 21.5833C434.098 26.7671 438.233 30.9025 443.417 31.2083L443.417 32.9583 444.583 32.9583 444.583 31.2083C449.767 30.9025 453.902 26.7671 454.208 21.5833L455.958 21.5833 455.958 20.4167ZM449.88 21.5833C449.6 24.3843 447.384 26.5997 444.583 26.88L444.583 24.5 443.417 24.5 443.417 26.88C440.616 26.5997 438.4 24.3843 438.12 21.5833L440.5 21.5833 440.5 20.4167 438.12 20.4167C438.4 17.6157 440.616 15.4003 443.417 15.12L443.417 17.5 444.583 17.5 444.583 15.12C447.384 15.4003 449.6 17.6157 449.88 20.4167L447.5 20.4167 447.5 21.5833ZM443.417 12.5417 443.417 13.9504C439.972 14.2397 437.238 16.972 436.948 20.4167L435.542 20.4167C435.842 16.1979 439.198 12.8416 443.417 12.5417ZM435.542 21.5833 436.95 21.5833C437.24 25.0281 439.972 27.7616 443.417 28.0525L443.417 29.4583C439.198 29.1584 435.842 25.8021 435.542 21.5833ZM444.583 29.4583 444.583 28.0525C448.029 27.763 450.763 25.0291 451.052 21.5833L452.458 21.5833C452.158 25.8021 448.802 29.1584 444.583 29.4583ZM451.052 20.4167C450.763 16.9709 448.029 14.237 444.583 13.9475L444.583 12.5417C448.802 12.8416 452.158 16.1979 452.458 20.4167Z"/></g></svg>